<svg width="621" height="202" viewBox="0 0 621 202" fill="none" xmlns="http://www.w3.org/2000/svg">
<path fill-rule="evenodd" clip-rule="evenodd" d="M366.265 30.4361C365.434 30.4829 364.614 30.561 363.804 30.6701C364.237 21.9307 362.685 14.8861 358.626 9.36649L358.386 9.04018L358.125 8.73022C356.258 6.51443 353.918 4.67924 351.141 3.08914C347.039 0.740191 342.358 0.0280752 337.227 0.489425L337.091 0.501645L336.955 0.516829C327.452 1.5808 320.418 8.24341 314.922 18.8569C311.191 25.9566 308.055 35.071 305.396 46.2887C303.616 53.2598 302.214 60.5138 301.187 68.0495C300.97 67.9788 300.753 67.9106 300.535 67.8449C296.078 66.5001 291.503 66.2681 286.998 67.1898L286.896 67.2111C281.514 68.3591 276.867 70.9951 273.092 74.8706C272.944 74.5071 272.789 74.1464 272.627 73.7887C270.641 69.4067 267.668 65.7515 263.796 63.0388L263.602 62.9031L263.403 62.7748C259.904 60.518 256.024 59.0983 251.893 58.5686C248.082 58.0801 244.284 58.2927 240.579 59.2088C237.203 60.0436 233.988 61.3602 230.969 63.1392C227.784 65.0157 225.048 67.3188 222.835 70.0489C221.678 71.4207 220.572 72.9167 219.512 74.5366C216.926 73.2417 214.147 72.3898 211.23 72.0013C206.938 71.4299 202.726 71.9073 198.807 73.4928C197.715 73.9344 196.69 74.4656 195.74 75.0777C195.37 74.5862 194.967 74.1114 194.531 73.6553C192.536 71.5656 190.113 70.0462 187.391 69.0188C188.01 67.1871 188.33 65.2435 188.33 63.2348C188.33 58.1972 186.382 53.5466 182.713 50.0432C182.075 49.4341 181.404 48.8778 180.704 48.3745C177.462 46.0444 173.595 44.8541 169.491 44.8541C165.332 44.8541 161.436 46.1638 158.197 48.6164C154.89 46.1268 150.9 44.8541 146.655 44.8541C141.751 44.8541 137.214 46.675 133.687 50.0432C130.018 53.5466 128.069 58.1972 128.069 63.2348C128.069 66.0938 128.718 68.8209 129.953 71.2813C129.895 71.2033 129.836 71.1256 129.776 71.048C127.413 67.9919 124.172 66.0691 120.517 65.1319C118.182 64.5331 115.734 64.295 113.18 64.3693C111.23 64.426 109.319 64.5979 107.447 64.8871C105.557 65.1792 103.84 65.5497 102.267 66.0232C100.624 66.5176 99.4877 66.9139 98.33 67.5389L97.8427 67.7565C98.3118 60.771 97.0642 54.7307 93.7062 49.6454L93.5362 49.3879L93.3533 49.1392C91.7737 46.9912 89.7551 45.1578 87.3143 43.4754C83.6116 40.9232 79.2601 39.8355 74.4693 39.8355C71.104 39.8355 67.9697 40.5339 65.132 41.8437C65.3951 37.7136 65.2873 33.6497 64.8029 29.6581L64.7792 29.4627L64.7492 29.2681C63.5274 21.3589 60.9858 14.6952 56.9055 9.3988L56.7637 9.21464L56.6148 9.03592C51.9893 3.4811 45.7723 0.313721 38.6936 0.313721H38.5667C32.0251 0.313721 26.2046 3.13245 21.6864 8.06984C17.0025 13.1155 13.7597 20.2643 11.4544 29.591C9.58998 37.1509 8.26905 46.0252 7.4593 56.258C6.75708 64.8517 6.40668 74.2949 6.40668 84.564C6.40668 94.7772 6.7533 105.361 7.44568 116.317L7.45368 116.435L7.75436 120.555C6.94382 121.218 6.18152 121.944 5.47139 122.734C2.19795 126.376 0.3172 130.793 0.3172 135.629C0.3172 142.179 3.54597 147.837 9.09178 151.39C9.85157 151.885 10.636 152.331 11.4432 152.729C11.8617 155.55 12.3916 158.331 13.0333 161.072C14.0321 165.899 15.1337 170.246 16.3477 174.125C17.6211 178.194 19.0245 181.812 20.5818 184.995C25.7628 195.506 33.5664 201.937 43.895 201.937C46.9039 201.937 49.7017 201.161 52.6533 199.826C57.2764 197.736 60.4045 194.004 62.7157 189.106L62.8251 188.874L62.9247 188.638C64.8951 183.961 65.7791 178.482 65.7791 172.139C65.7791 166.744 65.074 161.065 63.6896 155.1C62.9942 152.054 62.1094 149.053 61.044 146.144C60.092 143.543 59.028 141.077 57.8488 138.747C59.5615 137.338 61.259 135.865 62.9414 134.329C63.4023 133.913 63.8603 133.493 64.3153 133.071C67.0115 130.569 69.604 127.971 72.065 125.302C74.2523 122.929 76.3114 120.549 78.2421 118.159C75.479 132.311 75.8631 142.489 80.1733 149.735C82.2006 153.144 85.0051 155.861 88.5654 157.561C91.4661 158.945 94.5938 159.655 97.8123 159.655C103.714 159.655 109.22 157.485 114.065 153.578C117.653 150.685 120.895 147.264 123.789 143.341C125.643 140.829 127.355 138.272 128.924 135.672C133.483 139.075 139.021 140.835 145.133 140.835C149.029 140.835 152.73 140.112 156.121 138.641C157.124 141.462 158.407 143.974 160.011 146.186C163.544 151.237 168.727 154.457 174.869 155.377L175.79 155.515H176.033C176.669 155.595 177.31 155.64 177.99 155.64C183.783 155.64 189.11 153.6 193.381 149.736C196.024 147.344 198.302 144.806 200.197 142.113L200.251 142.035L200.304 141.957C200.533 141.62 200.761 141.277 200.988 140.927C203.87 141.583 206.876 141.756 209.959 141.473C213.796 141.122 217.454 140.083 220.85 138.368C223.189 137.187 225.206 135.628 226.812 133.757C227.559 138.02 229.204 141.84 231.859 145.018C236.054 150.11 242.05 152.755 248.781 152.755C257.864 152.755 265.887 148.063 272.849 139.849L272.935 139.747C273.918 138.561 274.894 137.287 275.865 135.923C280.214 138.859 285.268 140.332 290.687 140.205L291.033 140.197L291.379 140.169C294.664 139.909 297.821 139.212 300.813 138.069C301.622 137.76 302.42 137.426 303.206 137.067C303.739 138.653 304.324 140.158 304.962 141.584L304.993 141.652C307.197 146.497 310.059 150.55 313.659 153.699C318.2 157.691 323.835 159.781 329.974 159.781H330.227C333.091 159.781 335.927 159.309 338.705 158.401H338.941L341.144 157.534C347.701 154.953 353.771 150.215 359.545 143.378C361.087 147.154 363.191 150.387 365.953 153C369.877 156.712 374.602 158.978 379.852 159.37C385.008 159.755 389.961 158.29 394.431 155.342C398.405 152.722 401.648 149.067 404.226 144.541C404.839 143.533 405.437 142.474 406.023 141.363C408.151 141.644 410.336 141.677 412.561 141.473C416.398 141.122 420.056 140.083 423.452 138.368C425.791 137.187 427.808 135.628 429.414 133.757C430.161 138.02 431.806 141.84 434.461 145.018C438.656 150.11 444.652 152.755 451.383 152.755C460.466 152.755 468.489 148.063 475.452 139.849L475.537 139.747C475.6 139.67 475.664 139.593 475.728 139.515C475.813 139.411 475.899 139.306 475.985 139.2C476.826 139.616 477.705 139.97 478.616 140.27C482.204 141.453 486.013 141.834 489.948 141.473C493.785 141.122 497.443 140.083 500.84 138.368C503.178 137.187 505.195 135.628 506.801 133.757C507.548 138.02 509.194 141.84 511.849 145.018C516.043 150.11 522.039 152.755 528.77 152.755C537.853 152.755 545.876 148.063 552.839 139.849L552.924 139.747C554.351 138.026 555.763 136.119 557.164 134.024C561.749 138.559 567.477 141.086 573.807 141.086C577.519 141.086 581.094 140.371 584.424 138.925C587.028 137.795 589.478 136.379 591.758 134.688C593.956 133.057 595.972 131.214 597.798 129.168C599.159 127.643 600.476 126.115 601.75 124.585L601.943 124.353L602.125 124.112C605.139 120.106 608.091 115.601 610.991 110.593C613.757 105.817 616.412 100.955 618.958 96.008L618.996 95.9317C620.636 92.6881 621.118 88.9969 620.138 85.3642C619.017 81.2045 616.177 77.9751 612.45 76.1319C608.934 74.3933 604.901 74.0073 601.04 75.28C600.775 75.3674 600.514 75.4614 600.258 75.5621C600.241 71.342 599.083 67.3418 596.767 63.8565C594.575 60.5586 591.574 57.9675 587.965 56.1828C583.384 53.9175 578.258 53.2634 572.866 54.0039L572.7 54.0268L572.534 54.0541C567.437 54.8942 562.744 56.9872 558.614 60.2174C556.233 62.0105 554.169 64.176 552.441 66.6677C551.738 67.6817 551.075 68.7498 550.449 69.8716C548.669 67.1979 546.438 64.8972 543.785 63.0388L543.591 62.9031L543.392 62.7748C539.893 60.518 536.014 59.0983 531.882 58.5686C528.072 58.0801 524.273 58.2927 520.568 59.2088C517.192 60.0436 513.977 61.3602 510.958 63.1392C507.773 65.0157 505.038 67.3188 502.825 70.0489C501.667 71.4207 500.562 72.9167 499.502 74.5366C496.915 73.2417 494.137 72.3898 491.219 72.0013C486.927 71.4299 482.715 71.9073 478.796 73.4928C477.719 73.9285 476.707 74.4514 475.767 75.0531C475.598 74.6278 475.419 74.2063 475.229 73.7887C473.243 69.4067 470.27 65.7515 466.398 63.0388L466.204 62.9031L466.005 62.7748C462.506 60.518 458.626 59.0983 454.495 58.5686C450.685 58.0801 446.886 58.2927 443.181 59.2088C439.805 60.0436 436.59 61.3602 433.571 63.1392C430.386 65.0157 427.65 67.3188 425.437 70.0489C424.28 71.4207 423.174 72.9167 422.115 74.5366C421.411 74.1841 420.692 73.8645 419.961 73.5781C422.728 68.1626 422.761 61.9465 420.178 56.0927C422.273 54.1903 424.159 52.2237 425.851 50.1424C435.254 38.569 427.559 22.8014 412.77 22.306C409.365 22.1915 406.319 22.6534 402.769 23.6418C402.454 23.1845 402.115 22.734 401.748 22.2876C398.646 18.5091 394.227 16.1683 389.074 15.8233C380.142 15.2231 372.143 18.6306 367.987 27.2176C367.772 27.6623 367.543 28.0939 366.974 29.1308L366.924 29.2208C366.689 29.6503 366.47 30.0535 366.265 30.4361ZM198.669 116.809C198.961 115.942 199.246 115.079 199.523 114.221C199.493 117.928 199.546 121.76 199.684 125.717C199.684 127.055 200.636 128.038 202.539 128.665C204.442 129.292 206.535 129.502 208.818 129.292C211.102 129.083 213.237 128.477 215.225 127.473C217.213 126.469 218.333 125.006 218.587 123.082C221.293 113.965 223.809 106.416 226.135 100.435C228.461 94.4548 230.597 89.708 232.542 86.1949C234.487 82.6819 236.284 80.2353 237.934 78.8552C239.583 77.4751 241.084 76.785 242.437 76.785C242.945 76.785 243.325 76.8477 243.579 76.9732C243.833 77.0987 244.044 77.245 244.213 77.4123C244.636 77.8306 244.954 78.7088 245.165 80.0471C245.376 81.3854 245.355 83.5183 245.102 86.4459C244.848 88.8716 244.446 91.4854 243.896 94.2875C243.347 97.0896 242.733 100.038 242.057 103.133C241.296 106.73 240.598 110.243 239.964 113.672C239.329 117.101 238.906 120.301 238.695 123.27C238.483 126.239 238.568 128.937 238.949 131.363C239.329 133.788 240.154 135.754 241.422 137.26C243.199 139.434 245.651 140.522 248.781 140.522C253.686 140.522 258.549 137.678 263.37 131.99C266.838 127.808 270.39 121.995 274.027 114.55C274.554 113.416 275.064 112.292 275.557 111.18C276.312 117.231 278.17 121.659 281.131 124.462C283.753 126.888 286.84 128.059 290.392 127.975C292.506 127.808 294.494 127.369 296.355 126.658C298.215 125.947 299.991 125.048 301.683 123.96C303.374 122.873 305.045 121.639 306.694 120.259C308.343 118.879 310.014 117.436 311.705 115.93C312.466 124.629 313.989 131.53 316.272 136.632C317.795 139.978 319.655 142.613 321.854 144.537C324.138 146.544 326.844 147.548 329.974 147.548H330.227C332.257 147.548 334.329 147.088 336.444 146.168H336.571C344.859 142.905 353.19 133.537 361.563 118.063C363.508 114.55 365.242 111.121 366.764 107.775C366.98 107.301 367.192 106.833 367.399 106.373L367.399 106.395C367.314 109.741 367.314 113.086 367.399 116.432C367.652 124.629 368.54 131.154 370.063 136.005C371.078 139.602 372.558 142.32 374.503 144.16C376.448 146 378.541 147.004 380.783 147.171C383.024 147.339 385.286 146.669 387.57 145.164C389.854 143.658 391.841 141.4 393.533 138.389C394.97 136.047 396.366 133.245 397.719 129.983C399.072 126.72 400.426 122.956 401.779 118.691C401.894 118.321 402.008 117.953 402.121 117.584C402.134 120.234 402.19 122.944 402.286 125.717C402.286 127.055 403.238 128.038 405.141 128.665C407.044 129.292 409.137 129.502 411.42 129.292C413.704 129.083 415.84 128.477 417.827 127.473C419.815 126.469 420.935 125.006 421.189 123.082C423.895 113.965 426.412 106.416 428.737 100.435C431.063 94.4548 433.199 89.708 435.144 86.1949C437.089 82.6819 438.887 80.2353 440.536 78.8552C442.185 77.4751 443.686 76.785 445.039 76.785C445.547 76.785 445.927 76.8477 446.181 76.9732C446.435 77.0987 446.646 77.245 446.816 77.4123C447.238 77.8306 447.556 78.7088 447.767 80.0471C447.978 81.3854 447.957 83.5183 447.704 86.4459C447.45 88.8716 447.048 91.4854 446.498 94.2875C445.949 97.0896 445.335 100.038 444.659 103.133C443.898 106.73 443.2 110.243 442.566 113.672C441.931 117.101 441.508 120.301 441.297 123.27C441.086 126.239 441.17 128.937 441.551 131.363C441.931 133.788 442.756 135.754 444.025 137.26C445.801 139.434 448.253 140.522 451.383 140.522C456.288 140.522 461.151 137.678 465.972 131.99C469.44 127.808 472.992 121.995 476.629 114.55C477.702 112.24 478.704 109.976 479.636 107.759C479.602 109.031 479.572 110.353 479.546 111.727C479.462 116.202 479.504 120.865 479.673 125.717C479.673 127.055 480.625 128.038 482.528 128.665C484.431 129.292 486.524 129.502 488.808 129.292C491.091 129.083 493.227 128.477 495.214 127.473C497.202 126.469 498.322 125.006 498.576 123.082C501.283 113.965 503.799 106.416 506.125 100.435C508.45 94.4548 510.586 89.708 512.531 86.1949C514.476 82.6819 516.274 80.2353 517.923 78.8552C519.572 77.4751 521.073 76.785 522.427 76.785C522.934 76.785 523.315 76.8477 523.568 76.9732C523.822 77.0987 524.034 77.245 524.203 77.4123C524.626 77.8306 524.943 78.7088 525.154 80.0471C525.366 81.3854 525.344 83.5183 525.091 86.4459C524.837 88.8716 524.435 91.4854 523.885 94.2875C523.336 97.0896 522.723 100.038 522.046 103.133C521.285 106.73 520.587 110.243 519.953 113.672C519.318 117.101 518.896 120.301 518.684 123.27C518.473 126.239 518.557 128.937 518.938 131.363C519.318 133.788 520.143 135.754 521.412 137.26C523.188 139.434 525.64 140.522 528.77 140.522C533.675 140.522 538.538 137.678 543.359 131.99C546.827 127.808 550.379 121.995 554.016 114.55C555.32 111.742 556.521 109.003 557.616 106.332C558.144 109.289 558.889 112.154 559.851 114.927C561.458 119.443 563.446 122.894 565.814 125.278C568.182 127.661 570.846 128.853 573.807 128.853C575.836 128.853 577.718 128.477 579.452 127.724C581.186 126.971 582.814 126.03 584.336 124.901C585.859 123.772 587.254 122.496 588.523 121.074C589.791 119.652 591.018 118.231 592.202 116.809C594.908 113.212 597.594 109.113 600.258 104.513C602.922 99.9125 605.48 95.2285 607.933 90.4608C608.271 89.7916 608.356 89.1434 608.187 88.5161C608.018 87.8887 607.595 87.4078 606.918 87.0732C606.241 86.7386 605.586 86.6759 604.952 86.885C604.317 87.0941 603.831 87.5332 603.493 88.2024C601.04 92.8028 598.524 97.3405 595.944 101.815C593.365 106.29 590.764 110.284 588.142 113.797C585.943 116.558 584.104 118.126 582.624 118.502C581.143 118.879 579.896 118.502 578.881 117.373C577.866 116.244 577.063 114.508 576.471 112.166C575.879 109.824 575.435 107.273 575.139 104.513C574.843 101.753 574.61 98.9716 574.441 96.1695C574.272 93.3674 574.145 90.9627 574.06 88.9552C583.279 84.9403 587.888 80.5072 587.888 75.6558C587.888 73.732 587.402 72.0382 586.43 70.5744C585.457 69.1107 584.125 67.9606 582.433 67.1241C580.234 66.0368 577.612 65.7022 574.568 66.1204C571.523 66.6223 568.732 67.8769 566.195 69.8844C564.841 70.8881 563.657 72.1219 562.643 73.5856C561.628 75.0494 560.697 76.7432 559.851 78.667C557.84 83.8253 556.78 89.1782 556.672 94.726C556.552 95.051 556.428 95.3858 556.299 95.7304C555.454 97.9887 554.46 100.561 553.318 103.446C552.176 106.332 550.886 109.281 549.449 112.292C546.404 118.565 543.93 122.998 542.027 125.591C540.124 128.184 538.771 129.167 537.967 128.54C537.164 127.912 536.889 125.8 537.143 122.204C537.397 118.607 538.2 113.797 539.553 107.775C540.484 104.095 541.287 100.456 541.964 96.8595C542.64 93.2628 542.979 89.9589 542.979 86.9477C542.979 83.9365 542.429 81.2181 541.329 78.7925C540.23 76.3668 538.665 74.443 536.635 73.021C534.69 71.7664 532.576 70.9927 530.292 70.6999C528.009 70.4072 525.767 70.5326 523.568 71.0763C521.369 71.62 519.276 72.4773 517.289 73.6484C515.301 74.8194 513.673 76.1995 512.404 77.7887C511.051 79.378 509.74 81.2809 508.471 83.4974C507.203 85.714 505.892 88.286 504.539 91.2136C503.27 93.9738 502.065 96.9013 500.923 99.9962C499.781 103.091 498.703 106.144 497.688 109.155L498.069 95.9813C498.153 93.0537 498.196 91.5482 498.196 91.4645C498.28 89.3734 497.413 87.7005 495.595 86.4459C493.776 85.1912 491.768 84.4175 489.569 84.1248C487.37 83.832 485.34 84.062 483.479 84.8148C481.619 85.5676 480.646 86.8641 480.561 88.7043L480.383 91.5855C479.997 92.7602 479.507 94.1418 478.912 95.7304C478.066 97.9887 477.073 100.561 475.931 103.446C474.789 106.332 473.499 109.281 472.061 112.292C469.017 118.565 466.543 122.998 464.64 125.591C462.737 128.184 461.384 129.167 460.58 128.54C459.777 127.912 459.502 125.8 459.756 122.204C460.009 118.607 460.813 113.797 462.166 107.775C463.096 104.095 463.9 100.456 464.577 96.8595C465.253 93.2628 465.591 89.9589 465.591 86.9477C465.591 83.9365 465.042 81.2181 463.942 78.7925C462.843 76.3668 461.278 74.443 459.248 73.021C457.303 71.7664 455.189 70.9927 452.905 70.6999C450.621 70.4072 448.38 70.5326 446.181 71.0763C443.982 71.62 441.889 72.4773 439.901 73.6484C437.914 74.8194 436.286 76.1995 435.017 77.7887C433.664 79.378 432.353 81.2809 431.084 83.4974C429.816 85.714 428.505 88.286 427.152 91.2136C425.883 93.9738 424.678 96.9013 423.536 99.9962C422.394 103.091 421.316 106.144 420.301 109.155L420.682 95.9813C420.766 93.0537 420.808 91.5482 420.808 91.4645C420.893 89.3734 420.026 87.7005 418.208 86.4459C416.389 85.1912 414.381 84.4175 412.182 84.1248C409.983 83.832 407.953 84.062 406.092 84.8148C404.231 85.5676 403.259 86.8641 403.174 88.7043L402.99 91.6817L402.984 91.7154C402.688 93.3883 402.265 95.5421 401.715 98.1769C401.166 100.812 400.468 103.802 399.622 107.148C398.776 110.494 397.846 113.881 396.831 117.31C393.194 129.104 390.319 134.646 388.204 133.935C386.09 133.224 385.033 125.633 385.033 111.163C385.117 105.558 385.308 101.125 385.604 97.8633C385.9 94.6011 386.048 92.9283 386.048 92.8446C386.132 90.5862 385.286 88.8716 383.51 87.7005C381.734 86.5295 379.768 85.7767 377.611 85.4421C375.454 85.1076 373.446 85.1703 371.585 85.6303C369.724 86.0904 368.71 86.8641 368.54 87.9515C368.54 88.1188 368.456 89.0597 368.287 90.7744C368.268 90.9647 368.249 91.161 368.23 91.3631C367.672 92.8528 366.95 94.664 366.066 96.7968C365.009 99.348 363.72 102.275 362.197 105.579C360.675 108.883 358.983 112.25 357.123 115.679C352.725 123.709 348.411 129.941 344.182 134.374C341.73 137.134 339.636 138.577 337.903 138.702C336.169 138.828 334.71 138.054 333.526 136.381C332.342 134.708 331.411 132.304 330.735 129.167C330.058 126.03 329.572 122.559 329.276 118.753C328.98 114.948 328.811 110.974 328.768 106.834C328.726 102.694 328.79 98.7834 328.959 95.103C329.043 94.7684 329.086 94.2248 329.086 93.472C331.031 90.3771 332.807 87.3032 334.414 84.2502C336.021 81.1972 337.416 78.2906 338.6 75.5303C339.531 73.3556 340.503 70.9509 341.518 68.3161C342.533 65.6813 343.548 62.9001 344.563 59.9726C345.578 57.045 346.529 54.0548 347.417 51.0018C348.306 47.9488 349.088 44.9167 349.764 41.9055C352.386 29.6098 352.006 21.1618 348.623 16.5614C347.777 15.5577 346.551 14.5958 344.944 13.6757C343.337 12.7556 341.138 12.421 338.347 12.672C333.864 13.1738 329.72 17.1051 325.914 24.4658C322.7 30.5718 319.867 38.8106 317.414 49.1825C315.723 55.7904 314.391 62.691 313.418 69.8844C312.445 77.0778 311.747 84.1875 311.325 91.2136C309.21 88.1187 306.884 85.5676 304.347 83.5602C301.894 81.6363 299.421 80.2981 296.926 79.5453C294.431 78.7925 291.957 78.667 289.504 79.1689C285.191 80.0889 281.723 82.7655 279.101 87.1987C277.386 90.0444 276.231 93.4809 275.638 97.5082C274.951 99.3128 274.181 101.292 273.329 103.446C272.187 106.332 270.897 109.281 269.459 112.292C266.415 118.565 263.941 122.998 262.038 125.591C260.135 128.184 258.782 129.167 257.978 128.54C257.175 127.912 256.9 125.8 257.154 122.204C257.407 118.607 258.211 113.797 259.564 107.775C260.494 104.095 261.298 100.456 261.974 96.8595C262.651 93.2628 262.989 89.9589 262.989 86.9477C262.989 83.9365 262.44 81.2181 261.34 78.7925C260.241 76.3668 258.676 74.443 256.646 73.021C254.701 71.7664 252.587 70.9927 250.303 70.6999C248.019 70.4072 245.778 70.5326 243.579 71.0763C241.38 71.62 239.287 72.4773 237.299 73.6484C235.312 74.8194 233.684 76.1995 232.415 77.7887C231.062 79.378 229.751 81.2809 228.482 83.4974C227.214 85.714 225.903 88.286 224.55 91.2136C223.281 93.9738 222.076 96.9013 220.934 99.9962C219.792 103.091 218.714 106.144 217.699 109.155L218.079 95.9813C218.164 93.0537 218.206 91.5482 218.206 91.4645C218.291 89.3734 217.424 87.7005 215.606 86.4459C213.787 85.1912 211.779 84.4175 209.58 84.1248C207.381 83.832 205.351 84.062 203.49 84.8148C201.629 85.5676 200.657 86.8641 200.572 88.7043L200.389 91.6561C200.056 93.1649 199.61 95.0666 199.05 97.3614C198.458 99.7871 197.718 102.568 196.83 105.705C195.942 108.842 194.948 111.999 193.848 115.178C191.48 121.785 189.535 126.156 188.013 128.289C186.49 130.422 185.349 130.861 184.587 129.606C183.826 128.351 183.382 125.675 183.255 121.576C183.128 117.478 183.276 112.501 183.699 106.646C183.953 103.802 184.228 101.084 184.524 98.4906C184.82 95.8976 185.116 93.5974 185.412 91.59C185.708 89.5825 185.962 87.9724 186.173 86.7595L186.49 84.9403C186.575 83.7693 186.258 82.8074 185.539 82.0546C184.82 81.3018 183.826 80.7163 182.557 80.298C181.289 79.8798 179.914 79.6707 178.434 79.6707C176.954 79.6707 175.538 79.8171 174.184 80.1098C172.831 80.4026 171.647 80.8836 170.632 81.5527C169.617 82.2219 168.983 83.0165 168.729 83.9366L168.349 85.7558C168.095 86.9687 167.714 88.537 167.207 90.4608C166.699 92.3846 166.065 94.5593 165.304 96.985C164.543 99.4107 163.655 101.878 162.64 104.387C160.948 108.402 159.151 111.706 157.248 114.299C155.345 116.892 153.611 118.377 152.047 118.753C150.482 119.13 149.192 118.189 148.177 115.93C147.162 113.672 146.74 109.741 146.909 104.137C146.909 102.213 147.014 100.394 147.226 98.6788C147.437 96.9641 147.628 95.3958 147.797 93.9738C148.05 92.3846 148.304 90.879 148.558 89.4571C148.896 87.6169 148.262 86.2159 146.655 85.2539C145.048 84.292 143.166 83.7693 141.009 83.6856C138.853 83.602 136.76 83.9366 134.73 84.6894C132.7 85.4422 131.431 86.655 130.924 88.3279C130.839 88.4952 130.564 89.8544 130.099 92.4055C130.003 92.9307 129.914 93.4781 129.831 94.0476C129.45 94.9647 129.032 95.9647 128.577 97.0477C127.435 99.7662 126.103 102.819 124.581 106.207C123.058 109.594 121.367 113.045 119.506 116.558C115.785 123.584 112.888 128.456 110.816 131.174C108.744 133.893 107.412 134.708 106.82 133.621C106.228 132.534 106.354 129.69 107.2 125.089C108.046 120.489 109.568 114.383 111.767 106.771C112.698 103.426 113.67 100.247 114.685 97.2359C115.7 94.2247 116.609 91.5482 117.413 89.2061C118.216 86.8641 118.872 85.003 119.379 83.6229L120.14 81.5527C120.563 80.2144 120.5 79.1898 119.95 78.4788C119.4 77.7678 118.555 77.266 117.413 76.9732C116.271 76.6805 114.981 76.555 113.543 76.5968C112.106 76.6386 110.71 76.7641 109.357 76.9732C108.004 77.1823 106.841 77.4332 105.868 77.726C104.895 78.0188 104.282 78.2488 104.029 78.4161L102.062 79.2943C100.751 79.8798 99.0598 80.5281 96.9876 81.239C94.9155 81.95 92.5263 82.5983 89.8198 83.1838C87.1134 83.7693 84.3224 84.1038 81.4468 84.1875C81.8697 83.1001 82.2925 81.8246 82.7154 80.3608C83.1383 78.897 83.5612 77.3287 83.9841 75.6558C86.2676 66.8732 86.0562 60.4327 83.3497 56.3341C82.6731 55.414 81.6371 54.473 80.2416 53.5111C78.8461 52.5492 76.922 52.0682 74.4693 52.0682C70.6633 52.0682 67.5763 53.992 65.2082 57.8397C64.2778 59.3453 63.5589 61.0809 63.0515 63.0465C62.544 65.0121 62.2903 67.0823 62.2903 69.2571C62.2903 74.5266 63.6858 79.0016 66.4768 82.6819C68.8201 85.6946 71.7719 87.6639 75.3325 88.5898C75.2959 88.6669 75.2619 88.7469 75.2304 88.8297C73.7926 93.6811 70.9382 98.9924 66.6671 104.764C62.396 110.535 57.2158 116.181 51.1262 121.702C49.0118 123.626 46.8975 125.382 44.783 126.971C42.6686 128.561 40.6388 130.066 38.6936 131.488C38.3553 128.393 38.1227 125.612 37.9958 123.145C37.8689 120.677 37.7209 118.649 37.5518 117.06C37.1289 110.284 36.854 103.614 36.7272 97.0477C36.6003 90.4817 36.5792 84.1457 36.6637 78.0397C39.8776 74.6103 42.6686 70.8881 45.0368 66.8732C48.1661 61.6036 50.2805 56.2505 51.38 50.8136C52.9024 43.9548 53.2829 37.3888 52.5218 31.1154C51.5914 25.0931 49.773 20.3254 47.0666 16.8123C44.6985 13.9684 41.9075 12.5465 38.6936 12.5465H38.5667C35.6911 12.5465 33.1115 13.8011 30.828 16.3105C27.7832 19.5726 25.3305 24.9676 23.4699 32.4956C21.7783 39.3544 20.552 47.5932 19.7908 57.2123C19.1142 65.4931 18.7759 74.6102 18.7759 84.5639C18.7759 94.5176 19.1142 104.847 19.7908 115.554L20.6789 127.724C18.057 128.31 16.0695 129.355 14.7162 130.861C13.363 132.366 12.6864 133.956 12.6864 135.628C12.6864 137.971 13.7436 139.811 15.858 141.149C17.6341 142.32 19.8331 142.947 22.4549 143.031C22.8778 145.624 23.2796 148.217 23.6602 150.81C24.0408 153.403 24.5271 155.954 25.1191 158.463C26.0494 162.98 27.0643 166.995 28.1638 170.508C29.2633 174.021 30.4474 177.074 31.716 179.667C35.0145 186.359 39.0741 189.704 43.895 189.704C44.8253 189.704 46.0305 189.37 47.5106 188.701C48.9907 188.031 50.3228 186.442 51.5068 183.933C52.7755 180.922 53.4098 176.99 53.4098 172.139C53.4098 167.706 52.8178 162.938 51.6337 157.836C51.0417 155.243 50.3016 152.734 49.4136 150.308C48.5255 147.882 47.5318 145.624 46.4323 143.533C45.6711 142.027 44.8465 140.647 43.9584 139.392C43.0704 138.138 42.1612 136.925 41.2308 135.754C43.4298 134.332 45.6499 132.743 47.8912 130.986C50.1325 129.23 52.3526 127.348 54.5516 125.34C57.5118 122.664 60.3027 119.903 62.9246 117.06C65.5465 114.216 67.9569 111.372 70.1559 108.528C75.0613 101.836 78.402 95.7722 80.1781 90.3353C80.2751 89.9517 80.2887 89.575 80.2189 89.2052C80.2897 89.2058 80.3607 89.2061 80.4319 89.2061C84.3224 89.2061 88.0648 88.767 91.6593 87.8887C95.2538 87.0105 98.2774 86.1113 100.73 85.1912C99.7998 87.7005 98.7215 90.7953 97.4951 94.4757C96.2687 98.156 95.0635 102.045 93.8795 106.144C88.4666 125.382 87.4517 137.845 90.8347 143.533C91.6805 144.955 92.7165 145.959 93.9429 146.544C95.1693 147.13 96.459 147.422 97.8122 147.422C100.688 147.422 103.5 146.314 106.249 144.097C108.997 141.881 111.514 139.225 113.797 136.13C116.081 133.036 118.111 129.878 119.887 126.658C121.663 123.437 123.058 120.824 124.073 118.816C125.909 115.35 127.601 111.903 129.149 108.478C129.534 114.994 131.098 119.988 133.842 123.458C136.633 126.888 140.396 128.602 145.133 128.602C148.093 128.602 150.672 127.912 152.871 126.532C155.07 125.152 157.016 123.375 158.707 121.2C159.976 119.778 161.181 118.105 162.323 116.181C163.464 114.257 164.585 112.125 165.685 109.783C165.515 112.626 165.452 115.261 165.494 117.687C165.537 120.113 165.642 122.371 165.811 124.462C166.403 131.154 167.841 136.047 170.125 139.142C171.732 141.484 173.931 142.864 176.722 143.282C176.891 143.282 177.102 143.303 177.356 143.345C177.61 143.386 177.821 143.407 177.99 143.407C180.697 143.407 183.044 142.508 185.031 140.71C187.019 138.911 188.689 137.05 190.042 135.127C193.003 130.777 195.878 124.671 198.669 116.809ZM47.4472 42.721C47.278 45.3558 46.9397 47.7188 46.4323 49.8099C45.5019 53.8248 44.1699 57.5051 42.4361 60.8508C40.7022 64.1966 38.8627 67.2078 36.9175 69.8844L37.6786 58.7179C38.1015 53.9502 38.5878 49.5799 39.1376 45.6067C39.6873 41.6336 40.3851 38.0579 41.2308 34.8794C42.1612 31.1154 42.9858 28.5643 43.7047 27.226C44.4236 25.8877 45.0579 25.4067 45.6077 25.7831C46.1574 26.1595 46.6014 27.226 46.9397 28.9825C47.278 30.7391 47.4895 32.8092 47.5741 35.1931C47.6586 37.5769 47.6163 40.0862 47.4472 42.721ZM41.0405 144.16L41.8652 145.791C43.895 149.555 45.4808 153.8 46.6226 158.526C47.7644 163.252 48.3352 167.79 48.3352 172.139C48.3352 174.063 48.2295 175.213 48.0181 175.589C47.8066 175.966 47.5318 175.84 47.1935 175.213C46.8552 174.586 46.4746 173.603 46.0517 172.265C45.6288 170.926 45.2059 169.483 44.783 167.936C44.3602 166.389 43.9796 164.883 43.6413 163.419C43.303 161.955 43.0492 160.805 42.8801 159.969C42.288 157.041 41.7594 154.114 41.2943 151.186C40.8291 148.259 40.3851 145.331 39.9622 142.404C40.3851 142.989 40.7445 143.575 41.0405 144.16ZM20.0445 137.573C19.5371 137.448 19.0719 137.26 18.649 137.009L18.0781 136.444C17.8667 136.235 17.761 135.963 17.761 135.628C17.761 135.127 18.0358 134.604 18.5856 134.06C19.1353 133.516 20.0022 133.077 21.1863 132.743L21.8206 138.012L20.0445 137.573ZM79.9878 69.8844C79.6918 72.0591 79.417 73.6065 79.1632 74.5266C78.6558 76.3668 78.1483 78.0815 77.6409 79.6707C77.1334 81.26 76.6682 82.5564 76.2453 83.5602C75.3996 83.4765 74.5961 82.8074 73.8349 81.5527C73.0737 80.298 72.4183 78.7506 71.8685 76.9105C71.3188 75.0703 70.8959 73.0629 70.5999 70.8881C70.3039 68.7134 70.2404 66.6641 70.4096 64.7403C70.5788 62.8165 70.9805 61.1436 71.6148 59.7217C72.2491 58.2997 73.2006 57.4215 74.4693 57.0869C76.4991 56.5014 77.9369 56.8987 78.7826 58.2788C79.6284 59.6589 80.1147 61.3945 80.2416 63.4856C80.3684 65.5767 80.2839 67.7096 79.9878 69.8844ZM151.285 67.5005C152.512 66.3295 153.125 64.9076 153.125 63.2347C153.125 61.4782 152.512 60.0144 151.285 58.8434C150.059 57.6724 148.516 57.0869 146.655 57.0869C144.963 57.0869 143.504 57.6724 142.278 58.8434C141.052 60.0144 140.439 61.4782 140.439 63.2347C140.439 64.9076 141.052 66.3295 142.278 67.5005C143.504 68.6716 144.963 69.2571 146.655 69.2571C148.516 69.2571 150.059 68.6716 151.285 67.5005ZM174.121 67.5005C175.347 66.3295 175.961 64.9076 175.961 63.2347C175.961 61.4782 175.347 60.0144 174.121 58.8434C172.895 57.6724 171.351 57.0869 169.49 57.0869C167.799 57.0869 166.34 57.6724 165.114 58.8434C163.887 60.0144 163.274 61.4782 163.274 63.2347C163.274 64.9076 163.887 66.3295 165.114 67.5005C166.34 68.6716 167.799 69.2571 169.49 69.2571C171.351 69.2571 172.895 68.6716 174.121 67.5005ZM294.198 116.934C293.352 114.843 292.929 111.288 292.929 106.269C292.929 101.084 293.69 96.7341 295.213 93.221C296.735 90.0425 298.236 88.3697 299.717 88.2024C301.197 88.0351 302.613 88.6415 303.967 90.0217C305.32 91.4018 306.588 93.1792 307.772 95.354C308.957 97.5287 310.056 99.3689 311.071 100.874V105.078C311.071 106.458 311.113 107.817 311.198 109.155C308.407 112.25 305.891 114.78 303.649 116.746C301.408 118.712 299.484 119.757 297.877 119.883C296.27 120.008 295.044 119.025 294.198 116.934ZM346.783 29.8608C346.572 32.2028 345.916 35.8413 344.817 40.7763C344.14 43.7039 343.379 46.6523 342.533 49.6217C341.687 52.591 340.757 55.4976 339.742 58.3415C338.727 61.1854 337.712 63.9247 336.697 66.5595C335.683 69.1943 334.752 71.5573 333.906 73.6484C333.314 74.9867 332.701 76.325 332.067 77.6633C331.433 79.0016 330.735 80.3817 329.974 81.8036C330.566 76.1158 331.348 70.4908 332.321 64.9285C333.293 59.3661 334.456 54.0757 335.809 49.0571C336.571 46.1295 337.459 43.202 338.474 40.2745C339.488 37.3469 340.525 34.754 341.582 32.4956C342.639 30.2372 343.612 28.4807 344.5 27.226C345.388 25.9713 346.043 25.5113 346.466 25.8459C346.889 26.1805 346.995 27.5187 346.783 29.8608ZM579.262 80.4863C578.247 81.2809 576.894 82.0964 575.202 82.9328C576.555 78.2487 578.627 75.3212 581.418 74.1502C582.095 73.8993 582.497 73.8366 582.624 73.962C582.75 74.0875 582.814 74.6521 582.814 75.6558C582.814 75.9067 582.729 76.2622 582.56 76.7223C582.391 77.1823 582.053 77.726 581.545 78.3533C581.038 78.9807 580.277 79.6916 579.262 80.4863ZM365.83 61.0111C366.845 61.1262 367.924 61.2486 369.096 61.3943C368.734 62.2631 368.406 63.0774 368.094 63.8521C367.457 65.431 366.887 66.8457 366.231 68.2223C363.324 74.3305 366.767 79.7242 373.667 79.7797C380.012 79.8309 384.294 76.291 387.403 71.4645C388.805 69.2877 389.854 68.8483 391.919 70.0369C392.108 70.1454 392.295 70.2576 392.483 70.37C393.162 70.7759 393.845 71.1844 394.583 71.4285C395.033 71.5777 395.483 71.7372 395.933 71.8969C399.054 73.0034 402.189 74.1149 405.481 71.7986C410.916 67.9737 411.123 62.3083 406.005 56.7945C403.213 53.7857 403.214 53.7852 406.023 51.7344C406.231 51.5824 406.454 51.4192 406.693 51.2426C410.158 48.6838 413.523 45.7848 416.21 42.4788C419.145 38.8665 417.087 34.6904 412.351 34.5318C409.34 34.4305 406.177 35.3314 403.256 36.3C401.633 36.8384 400.13 37.7344 398.51 38.7002C397.757 39.1495 396.978 39.6139 396.15 40.0645C395.889 39.3157 395.638 38.6168 395.398 37.9502C394.9 36.5642 394.452 35.3176 394.072 34.0507C393.171 31.0389 391.782 28.2654 388.239 28.0282C384.501 27.777 380.996 28.6735 379.144 32.4987C378.741 33.333 378.29 34.1544 377.84 34.9754C376.9 36.6886 375.961 38.4 375.451 40.2237C374.673 43.0037 373.334 43.5429 370.843 42.7929C370.443 42.6722 370.004 42.6629 369.568 42.6536C369.431 42.6507 369.294 42.6478 369.159 42.6414C362.792 42.3415 357.628 44.7876 353.86 49.7172C350.669 53.8924 353.94 59.1888 360.25 60.2749C362.01 60.5778 363.79 60.7797 365.83 61.0111ZM369.073 54.6513C367.897 54.6045 366.72 54.5575 365.556 54.4405C365.203 54.4049 364.631 54.4397 364.011 54.4775C362.29 54.5823 360.191 54.7101 361.312 53.4218C362.838 51.669 372.227 48.0952 376.36 51.0751C376.51 51.1831 376.666 51.3081 376.827 51.4373C377.548 52.0137 378.375 52.6753 379.234 52.3049C380.065 51.9468 380.143 50.9588 380.214 50.0679C380.233 49.8306 380.251 49.6001 380.283 49.3903C380.401 48.6111 380.435 47.815 380.468 47.0207C380.518 45.8606 380.567 44.7043 380.878 43.6106C381.628 40.9707 382.732 38.3965 383.956 35.9171C384.275 35.2711 385.425 34.3344 386.469 34.8027C387.503 35.2669 387.508 36.0765 387.513 36.7847L387.513 36.804C387.524 38.6073 387.423 40.4123 387.323 42.2176C387.278 43.0176 387.234 43.8176 387.199 44.6176C387.072 47.5263 387.875 48.2119 390.667 47.1699C391.935 46.6969 393.142 46.0694 394.351 45.4412C395.18 45.0099 396.011 44.5782 396.862 44.196C397.251 44.0213 397.737 43.7626 398.266 43.4812C400.262 42.4194 402.865 41.0342 403.169 42.6163C403.555 44.6176 394.558 50.2972 389.791 51.5126C388.708 51.7888 386.843 52.5753 386.843 53.5079C386.843 54.4405 388.449 55.485 389.491 55.8431C393.131 57.0941 396.199 58.7865 397.328 62.6919C398.005 65.0359 397.335 65.9718 394.747 65.9168C391.003 65.8369 388.17 64.1621 385.971 61.2584C385.335 60.4187 383.956 59.2975 383.29 59.2975C382.787 59.2975 382.585 60.3578 382.406 61.2944C382.348 61.6001 382.292 61.8926 382.229 62.1307L382.156 62.4065C381.18 66.1102 380.2 69.8302 376.052 71.5213C375.132 71.897 373.635 72.0664 372.989 71.5887C372.408 71.1592 372.247 69.58 372.566 68.7375C373.737 65.647 375.065 62.5963 376.563 59.6382C377.804 57.1895 377.551 55.7514 374.704 55.1745C372.871 54.8029 370.974 54.7272 369.073 54.6513Z" fill="black"/>
</svg>
